<svg xmlns="http://www.w3.org/2000/svg" fill="#F7FF93" xml:space="preserve" width="21cm" height="29.7cm" version="1.1" style="shape-rendering:geometricPrecision; text-rendering:geometricPrecision; image-rendering:optimizeQuality; fill-rule:evenodd; clip-rule:evenodd"
viewBox="0 0 21000 29700"
 xmlns:xlink="http://www.w3.org/1999/xlink"
 xmlns:xodm="http://www.corel.com/coreldraw/odm/2003">
 <g id="Capa_x0020_1">
  <metadata id="CorelCorpID_0Corel-Layer"/>
  <path class="fil0" d="M3766.78 6674.31c227.6,-155.33 538.03,-96.74 693.36,130.86 155.33,227.6 96.74,538.03 -130.86,693.36l-1898.73 1299.12 0 5803.85 1286.8 742.94 3746.08 -2162.81c238.38,-138.07 543.57,-56.74 681.64,181.64 138.07,238.38 56.74,543.57 -181.64,681.64l-3995.1 2306.58 -0.46 -0.79c-148.73,85.95 -337.94,92.54 -497.59,0.79l-1747.49 -1008.91c-172.43,-78.88 -292.24,-252.89 -292.24,-454.9l0 -6352.47 1.04 0c0.15,-159.2 76.29,-315.6 217.71,-412.11l2117.48 -1448.79z"/>
  <path class="fil0" d="M5729.78 16350.63c238.38,-138.07 543.57,-56.74 681.64,181.64 138.07,238.38 56.74,543.57 -181.64,681.64l-2117.48 1225.91c-159.13,92.17 -348.01,86.54 -497.09,1.73l-1221.81 -599.38 0 735.75 1462.35 1096.74 3184.28 -1910.57 0 -2059.11c0,-276.14 223.86,-500 500,-500 276.14,0 500,223.86 500,500l0 2340.36 -1.54 0c-0.17,169.38 -86.67,334.46 -242.6,427.73l-3714.88 2228.93 -0.14 -0.23c-168.4,100.64 -387.89,95.93 -554.55,-29.06l-1896.15 -1422.09c-142.11,-88.18 -236.77,-245.6 -236.77,-425.14l0 -1783.17 2.02 0c-0.05,-73.54 16.22,-148.23 50.71,-218.75 120.81,-247.02 419,-349.33 666.02,-228.52l1729.77 848.56 1887.86 -1092.97z"/>
  <path class="fil0" d="M3622.21 10118.05c-239.46,134.83 -542.9,50.01 -677.73,-189.45 -134.83,-239.46 -50.01,-542.9 189.45,-677.73l4129.26 -2331.48c163.9,-92.28 357.76,-81.65 507.02,11.02l0.79 -1.26 1853.96 1151.71c165.67,103.07 249.98,287.39 233.48,469.31l-55.28 1962.6c-7.54,275.06 -236.66,491.92 -511.72,484.38 -80.5,-2.21 -155.99,-23.41 -222.35,-59.17l-0.31 0.57 -1466.49 -793.37 -3280.65 1934.15 -24.17 1740.28c-3.23,275.06 -228.85,495.42 -503.91,492.19 -275.06,-3.23 -495.42,-228.85 -492.19,-503.91l27.65 -1990.63c-9.21,-179.51 79.11,-357.91 244.58,-455.69l3764.09 -2219.16c145.42,-85.66 330.75,-95.53 490.24,-9.76l1001.97 542.06 25.26 -896.81 -1361.48 -845.77 -3871.47 2185.92z"/>
  <path class="fil0" d="M5757.07 13292.26c-239.46,134.83 -542.9,50.01 -677.73,-189.45 -134.83,-239.46 -50.01,-542.9 189.45,-677.73l1938.22 -1095.5c157.66,-88.77 343.04,-82.31 489.78,0.79l0.45 -0.79 1825.87 1039.32c161.61,91.73 252.37,260.16 252.53,433.59l1.38 0 0 6262.5c0,183.6 -98.98,344.07 -246.48,431.01l-1739.39 1138.68c-230.83,151.01 -540.4,86.3 -691.41,-144.53 -151.01,-230.83 -86.3,-540.4 144.53,-691.41l1532.75 -1003.4 0 -5703.79 -1327.71 -755.76 -1692.24 956.47z"/>
  <path class="fil0" d="M12950.52 6775.34c225.44,-158.56 536.75,-104.35 695.31,121.09 158.56,225.44 104.35,536.75 -121.09,695.31l-1795.08 1260.37 0 9869.15 1407.01 1023.27 3120.41 -1872.24 113.93 -2126.9c14.02,-275.06 248.38,-486.68 523.44,-472.66 275.06,14.02 486.68,248.38 472.66,523.44l-128.16 2392.46 -0.25 -0.01c-8.33,160.34 -93.81,313.74 -241.94,402.35l-3604.17 2162.5c-169.25,116.48 -400.24,120.37 -576.1,-7.07l-1858.42 -1351.56c-137.45,-89.1 -228.41,-243.85 -228.41,-419.85l0 -10381.61 0.92 0c0.14,-156.82 73.96,-311.13 211.97,-408.2l2007.97 -1409.84z"/>
  <path class="fil0" d="M19291.56 11626.69c0,276.14 -223.86,500 -500,500 -276.14,0 -500,-223.86 -500,-500l0 -2804.25 -1310.66 -842.58 -3248.12 1845.52 -73.76 7340.78 915.61 -529.02 -40.68 -5862.95c-0.68,-175.68 89.68,-330.46 226.73,-419.67l-0.16 -0.25 1837.06 -1196.21c230.83,-149.93 539.52,-84.34 689.45,146.49 54.55,83.99 80.54,178.28 80.45,271.48l1.58 0 0 3289.6c0,276.14 -223.86,500 -500,500 -276.14,0 -500,-223.86 -500,-500l0 -2369.28 -837.13 545.1 40.6 5850.59c11.72,183.07 -78.34,365.73 -247.84,463.9l-1922.49 1110.77 -0.36 -0.61c-74.5,43.24 -161.18,67.74 -253.55,67.02 -275.06,-2.15 -496.29,-226.9 -494.14,-501.96l85.2 -8479.06c-6.64,-179.97 84.74,-357.35 252.19,-452.39l3739.97 -2124.97c158.67,-99.66 367.13,-105.4 535.25,2.51l1767.02 1135.95c153.72,85.3 257.78,249.22 257.78,437.48l0 3076.01z"/>
  <path class="fil0" d="M18248.83 14490.3c0,-276.14 223.86,-500 500,-500 276.14,0 500,223.86 500,500l0 4665.59c0,190.1 -106.1,355.42 -262.3,439.98l-2140.25 1394.76c-230.83,149.93 -539.52,84.34 -689.45,-146.49 -149.93,-230.83 -84.34,-539.52 146.49,-689.45l1945.51 -1267.85 0 -4396.54z"/>
 </g>
</svg>
